<?xml version="1.0" standalone="no"?>
<!DOCTYPE svg PUBLIC "-//W3C//DTD SVG 20010904//EN"
 "http://www.w3.org/TR/2001/REC-SVG-20010904/DTD/svg10.dtd">
<svg version="1.0" xmlns="http://www.w3.org/2000/svg"
 width="512.000000pt" height="512.000000pt" viewBox="0 0 512.000000 512.000000"
 preserveAspectRatio="xMidYMid meet">

<g transform="translate(0.000000,512.000000) scale(0.100000,-0.100000)"
fill="#000000" stroke="none">
<path d="M2229 3972 c-727 -729 -708 -707 -729 -847 -7 -47 -10 -411 -7 -1115
3 -1125 0 -1064 54 -1166 26 -50 93 -117 148 -149 95 -56 81 -56 1097 -53
l934 3 76 38 c146 72 129 42 516 914 199 446 348 795 357 833 23 101 21 390
-4 462 -41 119 -123 210 -241 267 l-75 36 -682 3 c-376 1 -683 5 -683 7 0 2
33 97 74 212 95 269 179 526 207 633 46 179 4 329 -127 448 -57 53 -167 118
-229 136 -17 5 -142 -116 -686 -662z"/>
<path d="M430 1920 l0 -1280 320 0 320 0 0 1280 0 1280 -320 0 -320 0 0 -1280z"/>
</g>
</svg>
